<svg width="257" height="53" viewBox="0 0 257 53" fill="none" xmlns="http://www.w3.org/2000/svg">
<path d="M27.096 52.72C23.256 52.72 19.68 52.096 16.368 50.848C13.104 49.552 10.248 47.752 7.8 45.448C5.4 43.096 3.528 40.336 2.184 37.168C0.84 34 0.168 30.544 0.168 26.8C0.168 23.056 0.84 19.6 2.184 16.432C3.528 13.264 5.424 10.528 7.872 8.224C10.32 5.872 13.176 4.072 16.44 2.824C19.704 1.528 23.28 0.879997 27.168 0.879997C31.296 0.879997 35.064 1.6 38.472 3.04C41.88 4.432 44.76 6.52 47.112 9.304L41.064 14.992C39.24 13.024 37.2 11.56 34.944 10.6C32.688 9.592 30.24 9.088 27.6 9.088C24.96 9.088 22.536 9.52 20.328 10.384C18.168 11.248 16.272 12.472 14.64 14.056C13.056 15.64 11.808 17.512 10.896 19.672C10.032 21.832 9.6 24.208 9.6 26.8C9.6 29.392 10.032 31.768 10.896 33.928C11.808 36.088 13.056 37.96 14.64 39.544C16.272 41.128 18.168 42.352 20.328 43.216C22.536 44.08 24.96 44.512 27.6 44.512C30.24 44.512 32.688 44.032 34.944 43.072C37.2 42.064 39.24 40.552 41.064 38.536L47.112 44.296C44.76 47.032 41.88 49.12 38.472 50.56C35.064 52 31.272 52.72 27.096 52.72ZM47.8978 52L70.5778 1.6H79.7938L102.546 52H92.7538L73.2418 6.568H76.9858L57.5458 52H47.8978ZM58.3378 40.336L60.8578 32.992H88.0738L90.5938 40.336H58.3378ZM108.956 52V1.6H129.692C134.156 1.6 137.972 2.32 141.14 3.76C144.356 5.2 146.828 7.264 148.556 9.952C150.284 12.64 151.148 15.832 151.148 19.528C151.148 23.224 150.284 26.416 148.556 29.104C146.828 31.744 144.356 33.784 141.14 35.224C137.972 36.616 134.156 37.312 129.692 37.312H114.14L118.316 33.064V52H108.956ZM141.932 52L129.188 33.712H139.195L152.012 52H141.932ZM118.316 34.072L114.14 29.608H129.26C133.388 29.608 136.484 28.72 138.547 26.944C140.66 25.168 141.716 22.696 141.716 19.528C141.716 16.312 140.66 13.84 138.547 12.112C136.484 10.384 133.388 9.52 129.26 9.52H114.14L118.316 4.912V34.072ZM161.62 52V1.6H185.236C191.284 1.6 195.892 2.8 199.06 5.2C202.228 7.552 203.812 10.72 203.812 14.704C203.812 17.392 203.188 19.696 201.94 21.616C200.692 23.488 199.012 24.952 196.9 26.008C194.836 27.016 192.58 27.52 190.132 27.52L191.428 24.928C194.26 24.928 196.804 25.456 199.06 26.512C201.316 27.52 203.092 29.008 204.388 30.976C205.732 32.944 206.404 35.392 206.404 38.32C206.404 42.64 204.748 46 201.436 48.4C198.124 50.8 193.204 52 186.676 52H161.62ZM170.98 44.656H186.1C189.604 44.656 192.292 44.08 194.164 42.928C196.036 41.776 196.972 39.928 196.972 37.384C196.972 34.888 196.036 33.064 194.164 31.912C192.292 30.712 189.604 30.112 186.1 30.112H170.26V22.84H184.228C187.492 22.84 189.988 22.264 191.716 21.112C193.492 19.96 194.38 18.232 194.38 15.928C194.38 13.576 193.492 11.824 191.716 10.672C189.988 9.52 187.492 8.944 184.228 8.944H170.98V44.656ZM227.722 52V32.056L229.81 37.816L207.922 1.6H217.93L235.498 30.76H229.882L247.594 1.6H256.81L234.922 37.816L237.082 32.056V52H227.722Z" fill="#FFA500"/>
</svg>
